# Blender v2.79 (sub 0) OBJ File: 'house_A_fix.blend'
# www.blender.org
mtllib house_A_fix.mtl
o Cube.001_Cube.002
v 1.255159 1.217005 -2.890207
v 1.255159 -0.870089 -2.890207
v 1.255159 1.217005 1.361588
v 1.255159 -0.870089 1.361588
v -2.977008 1.217005 -2.890207
v -2.977008 -0.870089 -2.890207
v -2.977008 1.217005 1.361588
v -2.977008 -0.870089 1.361588
v 1.242942 1.210980 -2.877934
v 1.242942 -0.864064 -2.877934
v 1.242942 1.210980 1.349315
v 1.242942 -0.864064 1.349315
v -2.964791 1.210980 -2.877934
v -2.964791 -0.864064 -2.877934
v -2.964791 1.210980 1.349315
v -2.964791 -0.864064 1.349315
vt 0.498618 0.718900
vt 0.191394 0.715970
vt 0.191772 0.996975
vt 0.498995 0.999904
vt 0.187462 0.271202
vt 0.007016 0.273499
vt 0.010948 0.718267
vt 0.494686 0.274132
vt 0.495493 0.008807
vt 0.188270 0.005877
vt 0.690912 0.716603
vt 0.686981 0.271835
vt 0.988280 0.267796
vt 0.992212 0.712563
vt 0.498618 0.718900
vt 0.498995 0.999904
vt 0.191772 0.996975
vt 0.191394 0.715970
vt 0.010948 0.718267
vt 0.007016 0.273499
vt 0.187462 0.271202
vt 0.188270 0.005877
vt 0.495493 0.008807
vt 0.494686 0.274132
vt 0.686981 0.271835
vt 0.690912 0.716603
vt 0.988280 0.267796
vt 0.992212 0.712563
vn 1.0000 0.0000 0.0000
vn 0.0000 0.0000 1.0000
vn -1.0000 0.0000 0.0000
vn 0.0000 0.0000 -1.0000
vn 0.0000 1.0000 0.0000
vn 0.0000 -1.0000 0.0000
usemtl None
s off
f 1/1/1 3/2/1 4/3/1 2/4/1
f 3/2/2 7/5/2 8/6/2 4/7/2
f 7/5/3 5/8/3 6/9/3 8/10/3
f 5/8/4 1/1/4 2/11/4 6/12/4
f 3/2/5 1/1/5 5/8/5 7/5/5
f 8/13/6 6/12/6 2/11/6 4/14/6
f 9/15/3 10/16/3 12/17/3 11/18/3
f 11/18/4 12/19/4 16/20/4 15/21/4
f 15/21/1 16/22/1 14/23/1 13/24/1
f 13/24/2 14/25/2 10/26/2 9/15/2
f 11/18/6 15/21/6 13/24/6 9/15/6
f 16/27/5 12/28/5 10/26/5 14/25/5
o Cube_Cube.001
v -2.824495 -0.893040 1.199066
v -2.824495 1.106960 1.199066
v -2.824495 -0.893040 -0.800934
v -2.824495 1.106960 -0.800934
v 1.187991 -0.893040 1.199066
v 1.187991 1.106960 1.199066
v 1.187991 -0.893040 -0.800934
v 1.187991 1.106960 -0.800934
vt 0.258443 0.987922
vt 0.263772 0.724377
vt 0.508032 0.725947
vt 0.502703 0.989492
vt 0.752293 0.727516
vt 0.505771 0.281820
vt 0.750032 0.283389
vt 0.507305 0.016334
vt 0.261510 0.280250
vt 0.263044 0.014764
vt 0.017249 0.278681
vt 0.019511 0.722808
vt 0.994292 0.284959
vt 0.996554 0.729086
vn -1.0000 0.0000 0.0000
vn 0.0000 0.0000 -1.0000
vn 1.0000 0.0000 0.0000
vn 0.0000 0.0000 1.0000
vn 0.0000 -1.0000 0.0000
vn 0.0000 1.0000 0.0000
usemtl None_home_innerbox.png
s off
f 17/29/7 18/30/7 20/31/7 19/32/7
f 19/33/8 20/31/8 24/34/8 23/35/8
f 23/36/9 24/34/9 22/37/9 21/38/9
f 21/39/10 22/37/10 18/30/10 17/40/10
f 19/33/11 23/35/11 21/41/11 17/42/11
f 24/34/12 20/31/12 18/30/12 22/37/12
