# Blender v2.79 (sub 0) OBJ File: ''
# www.blender.org
mtllib power_A.mtl
o Cube.001
v 0.515431 1.689409 0.777732
v 0.515431 0.412683 0.777732
v 0.515431 1.689409 -1.222268
v 0.515431 0.412683 -1.222268
v -0.739102 1.689409 0.777732
v -0.739102 0.412683 0.777732
v -0.739102 1.689409 -1.222268
v -0.739102 0.412683 -1.222268
vt -0.001183 0.272428
vt 0.238548 0.272036
vt 0.237273 0.729068
vt -0.002458 0.729460
vt 0.240685 0.997185
vt 0.498504 0.732419
vt 0.501915 1.000536
vt 0.747907 0.734095
vt 0.499779 0.275387
vt 0.749183 0.277063
vt 0.501777 -0.000261
vt 0.240546 -0.003612
vt 0.996225 0.732811
vt 0.997500 0.275779
vn 1.0000 -0.0000 0.0000
vn 0.0000 0.0000 -1.0000
vn -1.0000 0.0000 0.0000
vn 0.0000 0.0000 1.0000
vn 0.0000 1.0000 0.0000
vn -0.0000 -1.0000 0.0000
usemtl None
s off
f 1/1/1 2/2/1 4/3/1 3/4/1
f 3/5/2 4/3/2 8/6/2 7/7/2
f 7/8/3 8/6/3 6/9/3 5/10/3
f 5/11/4 6/9/4 2/2/4 1/12/4
f 3/13/5 7/8/5 5/10/5 1/14/5
f 8/6/6 4/3/6 2/2/6 6/9/6
o Cube
v 0.481783 -0.891717 -0.681753
v 0.481783 -0.891717 0.681753
v -0.481783 -0.891717 0.681752
v -0.481783 -0.891717 -0.681753
v 0.481783 1.663440 -0.681752
v 0.481782 1.663440 0.681753
v -0.481783 1.663440 0.681752
v -0.481783 1.663440 -0.681753
vt 0.867843 0.605702
vt 0.865133 0.384953
vt 0.999913 0.382171
vt 1.002623 0.602920
vt 0.502710 0.602921
vt 0.378770 0.601530
vt 0.376060 0.380781
vt 0.500000 0.382171
vt 0.500000 0.000087
vt 0.376060 -0.001304
vt 0.000087 0.382171
vt 0.002797 0.602921
vt 0.500000 0.993350
vt 0.376060 0.991960
vn 0.0000 -1.0000 0.0000
vn 0.0000 1.0000 0.0000
vn 1.0000 -0.0000 0.0000
vn -0.0000 -0.0000 1.0000
vn -1.0000 -0.0000 -0.0000
vn 0.0000 0.0000 -1.0000
usemtl Material
s off
f 9/15/7 10/16/7 11/17/7 12/18/7
f 13/19/8 16/20/8 15/21/8 14/22/8
f 9/15/9 13/19/9 14/22/9 10/16/9
f 10/23/10 14/22/10 15/21/10 11/24/10
f 11/25/11 15/21/11 16/20/11 12/26/11
f 13/19/12 9/27/12 12/28/12 16/20/12
